<?xml version="1.0" encoding="UTF-8"?>
<svg xmlns="http://www.w3.org/2000/svg" xmlns:xlink="http://www.w3.org/1999/xlink" width="34px" height="34px" viewBox="0 0 34 34" version="1.1">
<g id="surface1">
<path style="fill:none;stroke-width:1.5;stroke-linecap:round;stroke-linejoin:round;stroke:rgb(100%,100%,100%);stroke-opacity:1;stroke-miterlimit:4;" d="M 15.750006 6.000002 C 15.750006 8.070775 14.070777 9.750004 12.000005 9.750004 C 9.929232 9.750004 8.250003 8.070775 8.250003 6.000002 C 8.250003 3.929229 9.929232 2.250001 12.000005 2.250001 C 14.070777 2.250001 15.750006 3.929229 15.750006 6.000002 Z M 4.502759 20.117655 C 4.568936 16.022984 7.905334 12.741733 12.000005 12.741733 C 16.094675 12.741733 19.431074 16.022984 19.49725 20.117655 C 17.147984 21.19578 14.586403 21.755523 12.000005 21.750008 C 9.322614 21.750008 6.783091 21.165449 4.502759 20.117655 Z M 4.502759 20.117655 " transform="matrix(1.416666,0,0,1.416666,0,0)"/>
</g>
</svg>
